<?xml version="1.0" encoding="UTF-8" standalone="no"?>
<!DOCTYPE svg PUBLIC "-//W3C//DTD SVG 1.1//EN" "http://www.w3.org/Graphics/SVG/1.1/DTD/svg11.dtd">
<svg width="100%" height="100%" viewBox="0 0 160 160" version="1.1" xmlns="http://www.w3.org/2000/svg" xmlns:xlink="http://www.w3.org/1999/xlink" xml:space="preserve" xmlns:serif="http://www.serif.com/" style="fill-rule:evenodd;clip-rule:evenodd;stroke-linejoin:round;stroke-miterlimit:2;">
    <g transform="matrix(1,0,0,1,-115.642,-460.077)">
        <g transform="matrix(1.63265,0,0,1.1588,0,0)">
            <g transform="matrix(0.6125,0,0,0.862963,0.424216,-9.66075e-14)">
                <path d="M194.873,460.077C238.983,460.077 274.796,495.889 274.796,540C274.796,584.111 238.983,619.923 194.873,619.923C150.762,619.923 114.95,584.111 114.95,540C114.95,495.889 150.762,460.077 194.873,460.077ZM177.257,588.51C177.257,590.259 176.255,591.854 174.679,592.612C171.385,594.197 165.567,596.998 161.021,599.186C159.61,599.864 157.95,599.771 156.624,598.938C155.298,598.105 154.494,596.649 154.494,595.083C154.494,577.157 154.494,531.31 154.494,519.401C154.494,517.652 155.496,516.057 157.072,515.299C160.366,513.714 166.184,510.914 170.73,508.726C172.141,508.047 173.802,508.14 175.127,508.973C176.453,509.807 177.257,511.262 177.257,512.828C177.257,530.754 177.257,576.601 177.257,588.51ZM184.845,547.803C184.845,549.369 185.649,550.824 186.975,551.658C188.3,552.491 189.961,552.584 191.372,551.905C199.755,547.87 213.914,541.056 219.697,538.273C221.274,537.514 222.276,535.92 222.276,534.171C222.276,531.012 222.276,525.807 222.276,521.512C222.276,519.947 221.471,518.491 220.146,517.658C218.82,516.825 217.16,516.731 215.749,517.41C207.365,521.445 193.207,528.259 187.423,531.043C185.847,531.801 184.845,533.396 184.845,535.145C184.845,538.303 184.845,543.508 184.845,547.803ZM184.845,517.452C184.845,519.018 185.649,520.474 186.975,521.307C188.3,522.14 189.961,522.233 191.372,521.554C202.594,516.153 225.074,505.335 232.673,501.677C234.249,500.919 235.251,499.324 235.251,497.575C235.251,494.417 235.251,489.212 235.251,484.917C235.251,483.351 234.447,481.895 233.121,481.062C231.796,480.229 230.135,480.136 228.724,480.814C217.502,486.216 195.022,497.034 187.423,500.692C185.847,501.45 184.845,503.045 184.845,504.794C184.845,507.952 184.845,513.157 184.845,517.452Z" style="fill:rgb(255,211,55);"/>
            </g>
        </g>
    </g>
</svg>
