<?xml version="1.0" encoding="UTF-8" standalone="no"?>
<!DOCTYPE svg PUBLIC "-//W3C//DTD SVG 1.1//EN" "http://www.w3.org/Graphics/SVG/1.1/DTD/svg11.dtd">
<svg width="100%" height="100%" viewBox="0 0 855 270" version="1.1" xmlns="http://www.w3.org/2000/svg" xmlns:xlink="http://www.w3.org/1999/xlink" xml:space="preserve" xmlns:serif="http://www.serif.com/" style="fill-rule:evenodd;clip-rule:evenodd;stroke-linejoin:round;stroke-miterlimit:2;">
    <g transform="matrix(1,0,0,1,-532.952,-350.851)">
        <g transform="matrix(1.63265,0,0,1.1588,0,0)">
            <g id="H" transform="matrix(1,0,0,1,3.18945,14.7582)">
                <g id="A" transform="matrix(1,0,0,1,295.83,3.45185)">
                    <g transform="matrix(0.6125,0,0,0.862963,0,0)">
                        <path d="M769.858,444.975L769.858,592.698C769.858,596.009 772.546,598.698 775.858,598.698L793.858,598.698C797.169,598.698 799.858,596.009 799.858,592.698L799.858,474.975C799.858,473.384 800.49,471.858 801.615,470.733C802.74,469.607 804.266,468.975 805.858,468.975C826.431,468.975 892.853,468.975 892.853,468.975C896.165,468.975 898.853,466.287 898.853,462.975L898.853,444.975C898.853,441.664 896.165,438.975 892.853,438.975L775.858,438.975C772.546,438.975 769.858,441.664 769.858,444.975Z" style="fill:rgb(255,211,55);"/>
                    </g>
                    <g transform="matrix(0.6125,0,0,0.862963,0,0)">
                        <path d="M868.853,492.975C868.853,494.567 868.221,496.093 867.096,497.218C865.971,498.343 864.445,498.975 862.853,498.975C848.98,498.975 815.858,498.975 815.858,498.975C812.546,498.975 809.858,501.664 809.858,504.975L809.858,522.975C809.858,526.287 812.546,528.975 815.858,528.975L862.853,528.975C864.445,528.975 865.971,529.607 867.096,530.733C868.221,531.858 868.853,533.384 868.853,534.975C868.853,550.842 868.853,592.698 868.853,592.698C868.853,596.009 871.542,598.698 874.853,598.698L892.853,598.698C896.165,598.698 898.853,596.009 898.853,592.698L898.853,485.118C898.853,481.806 896.165,479.118 892.853,479.118L874.853,479.118C871.542,479.118 868.853,481.806 868.853,485.118L868.853,492.975Z" style="fill:rgb(255,211,55);"/>
                    </g>
                </g>
                <g id="O" transform="matrix(1,0,0,1,2.4447,3.45185)">
                    <g transform="matrix(0.6125,0,0,0.862963,0,0)">
                        <path d="M1089.86,444.975L1089.86,592.698C1089.86,596.009 1092.55,598.698 1095.86,598.698L1113.86,598.698C1117.17,598.698 1119.86,596.009 1119.86,592.698L1119.86,474.975C1119.86,473.384 1120.49,471.858 1121.62,470.733C1122.74,469.607 1124.27,468.975 1125.86,468.975C1139.7,468.975 1172.71,468.975 1172.71,468.975C1176.02,468.975 1178.71,466.287 1178.71,462.975L1178.71,444.975C1178.71,441.664 1176.02,438.975 1172.71,438.975L1095.86,438.975C1092.55,438.975 1089.86,441.664 1089.86,444.975Z" style="fill:rgb(255,211,55);"/>
                    </g>
                    <g transform="matrix(0.6125,0,0,0.862963,0,0)">
                        <path d="M1188.85,562.698C1188.85,564.289 1188.22,565.815 1187.1,566.94C1185.97,568.065 1184.44,568.698 1182.85,568.698C1169.01,568.698 1136,568.698 1136,568.698C1132.69,568.698 1130,571.386 1130,574.698L1130,592.698C1130,596.009 1132.69,598.698 1136,598.698L1212.85,598.698C1216.16,598.698 1218.85,596.009 1218.85,592.698L1218.85,444.975C1218.85,441.664 1216.16,438.975 1212.85,438.975L1194.85,438.975C1191.54,438.975 1188.85,441.664 1188.85,444.975L1188.85,562.698Z" style="fill:rgb(255,211,55);"/>
                    </g>
                </g>
                <g id="N" transform="matrix(1,0,0,1,3.05985,3.45185)">
                    <g transform="matrix(0.6125,0,0,2.80155,12.8062,-738.198)">
                        <path d="M938.95,400.562C938.95,399.542 936.261,398.714 932.95,398.714L914.95,398.714C911.638,398.714 908.95,399.542 908.95,400.562L908.95,446.065C908.95,447.085 911.638,447.913 914.95,447.913L932.95,447.913C936.261,447.913 938.95,447.085 938.95,446.065L938.95,400.562Z" style="fill:rgb(255,211,55);"/>
                    </g>
                    <g transform="matrix(0.6125,0,0,0.862963,0,0)">
                        <path d="M1028.85,539.852C1028.85,541.193 1027.96,542.371 1026.67,542.738C1025.38,543.104 1024.01,542.571 1023.3,541.431C1013.67,525.872 993.676,493.588 981.101,473.281C979.69,471.001 976.937,469.935 974.358,470.669C971.779,471.403 970,473.758 970,476.44L970,502.093C970,503.209 970.311,504.303 970.899,505.252C977.467,515.859 1018.07,581.423 1027.08,595.98C1028.18,597.757 1030.13,598.834 1032.22,598.821C1038.83,598.782 1052.85,598.698 1052.85,598.698C1056.16,598.698 1058.85,596.009 1058.85,592.698L1058.85,444.975C1058.85,441.664 1056.16,438.975 1052.85,438.975L1034.85,438.975C1031.54,438.975 1028.85,441.664 1028.85,444.975L1028.85,539.852Z" style="fill:rgb(255,211,55);"/>
                    </g>
                </g>
                <g id="A1" serif:id="A" transform="matrix(1,0,0,1,3.675,3.45185)">
                    <g transform="matrix(0.6125,0,0,0.862963,0,0)">
                        <path d="M769.858,444.975L769.858,592.698C769.858,596.009 772.546,598.698 775.858,598.698L793.858,598.698C797.169,598.698 799.858,596.009 799.858,592.698L799.858,474.975C799.858,473.384 800.49,471.858 801.615,470.733C802.74,469.607 804.266,468.975 805.858,468.975C826.431,468.975 892.853,468.975 892.853,468.975C896.165,468.975 898.853,466.287 898.853,462.975L898.853,444.975C898.853,441.664 896.165,438.975 892.853,438.975L775.858,438.975C772.546,438.975 769.858,441.664 769.858,444.975Z" style="fill:rgb(255,211,55);"/>
                    </g>
                    <g transform="matrix(0.6125,0,0,0.862963,0,0)">
                        <path d="M868.853,492.975C868.853,494.567 868.221,496.093 867.096,497.218C865.971,498.343 864.445,498.975 862.853,498.975C848.98,498.975 815.858,498.975 815.858,498.975C812.546,498.975 809.858,501.664 809.858,504.975L809.858,522.975C809.858,526.287 812.546,528.975 815.858,528.975L862.853,528.975C864.445,528.975 865.971,529.607 867.096,530.733C868.221,531.858 868.853,533.384 868.853,534.975C868.853,550.842 868.853,592.698 868.853,592.698C868.853,596.009 871.542,598.698 874.853,598.698L892.853,598.698C896.165,598.698 898.853,596.009 898.853,592.698L898.853,485.118C898.853,481.806 896.165,479.118 892.853,479.118L874.853,479.118C871.542,479.118 868.853,481.806 868.853,485.118L868.853,492.975Z" style="fill:rgb(255,211,55);"/>
                    </g>
                </g>
                <g id="F" transform="matrix(1,0,0,1,3.675,3.45185)">
                    <g transform="matrix(1.8375,0,0,0.526204,-1272.16,169.014)">
                        <path d="M938.95,408.554C938.95,403.123 938.053,398.714 936.95,398.714L910.95,398.714C909.846,398.714 908.95,403.123 908.95,408.554L908.95,438.074C908.95,443.504 909.846,447.913 910.95,447.913L936.95,447.913C938.053,447.913 938.95,443.504 938.95,438.074L938.95,408.554Z" style="fill:rgb(255,211,55);"/>
                    </g>
                    <g transform="matrix(0.6125,0,0,0.862963,0,0)">
                        <path d="M639.858,534.975C639.858,531.661 642.544,528.975 645.858,528.975C662.886,528.975 710.289,528.975 710.289,528.975C713.601,528.975 716.289,526.287 716.289,522.975L716.289,504.975C716.289,501.664 713.601,498.975 710.289,498.975L645.858,498.975C642.544,498.975 639.858,496.289 639.858,492.975C639.858,478.907 639.858,444.975 639.858,444.975C639.858,441.664 637.169,438.975 633.858,438.975L615.858,438.975C612.546,438.975 609.858,441.664 609.858,444.975L609.858,592.698C609.858,596.009 612.546,598.698 615.858,598.698L633.858,598.698C637.169,598.698 639.858,596.009 639.858,592.698L639.858,534.975Z" style="fill:rgb(255,211,55);"/>
                    </g>
                </g>
            </g>
        </g>
        <g transform="matrix(1.63265,0,0,1.1588,0,0)">
            <g transform="matrix(0.521989,0,0,0.73544,-74.1656,142.856)">
                <path d="M847.37,369.961C847.37,371.93 846.546,373.809 845.097,375.142C843.648,376.475 841.707,377.141 839.744,376.977C799.207,373.085 767.447,338.905 767.447,297.365C767.447,253.254 803.26,217.441 847.37,217.441C891.481,217.441 927.293,253.254 927.293,297.365C927.293,304.09 926.461,310.623 924.893,316.866C924.088,319.959 921.296,322.118 918.1,322.118C904.732,322.139 869.513,322.139 854.411,322.139C852.543,322.139 850.753,322.88 849.432,324.201C848.112,325.521 847.37,327.312 847.37,329.179C847.37,339.669 847.37,359.307 847.37,369.961ZM829.755,345.875C829.755,347.624 828.753,349.218 827.176,349.977C823.883,351.562 818.065,354.362 813.519,356.55C812.108,357.229 810.447,357.135 809.122,356.302C807.796,355.469 806.992,354.013 806.992,352.448C806.992,334.521 806.992,288.675 806.992,276.766C806.992,275.016 807.994,273.422 809.57,272.663C812.864,271.078 818.682,268.278 823.228,266.09C824.639,265.411 826.299,265.505 827.625,266.338C828.95,267.171 829.755,268.627 829.755,270.192C829.755,288.119 829.755,333.966 829.755,345.875ZM837.342,305.168C837.342,306.733 838.147,308.189 839.472,309.022C840.798,309.855 842.459,309.949 843.869,309.27C852.253,305.235 866.411,298.421 872.195,295.637C873.771,294.879 874.773,293.284 874.773,291.535C874.773,288.377 874.773,283.172 874.773,278.877C874.773,277.311 873.969,275.855 872.643,275.022C871.318,274.189 869.657,274.096 868.246,274.775C859.863,278.809 845.705,285.623 839.921,288.407C838.345,289.166 837.342,290.76 837.342,292.509C837.342,295.667 837.342,300.873 837.342,305.168ZM837.342,274.817C837.342,276.382 838.147,277.838 839.472,278.671C840.798,279.504 842.459,279.598 843.869,278.919C855.092,273.518 877.571,262.699 885.171,259.042C886.747,258.283 887.749,256.689 887.749,254.939C887.749,251.781 887.749,246.576 887.749,242.281C887.749,240.716 886.944,239.26 885.619,238.427C884.293,237.594 882.633,237.5 881.222,238.179C869.999,243.58 847.52,254.399 839.921,258.056C838.345,258.815 837.342,260.409 837.342,262.159C837.342,265.317 837.342,270.522 837.342,274.817Z" style="fill:rgb(255,211,55);"/>
            </g>
        </g>
    </g>
</svg>
